<svg width="18" height="18" viewBox="0 0 18 18" fill="none" xmlns="http://www.w3.org/2000/svg">
<path d="M16.0234 1.15755C15.0755 0.21875 13.7995 0 12.0404 0H5.11328C3.38151 0 2.08724 0.21875 1.14844 1.15755C0.209635 2.09635 0 3.3724 0 5.11328V11.9857C0 13.7539 0.200521 15.0299 1.14844 15.9687C2.09635 16.9076 3.3724 17.1263 5.13151 17.1263H12.0404C13.7995 17.1263 15.0846 16.9076 16.0234 15.9687C16.9622 15.0208 17.1719 13.7539 17.1719 11.9857V5.13151C17.1719 3.36328 16.9622 2.09635 16.0234 1.15755ZM15.0846 4.88542V12.2409C15.0846 13.1979 14.957 13.9727 14.5013 14.4375C14.0273 14.9023 13.2435 15.0391 12.2865 15.0391H4.88542C3.92839 15.0391 3.14453 14.9023 2.67057 14.4375C2.21484 13.9727 2.08724 13.1979 2.08724 12.2409V4.89453C2.08724 3.92839 2.21484 3.15365 2.67057 2.67969C3.13542 2.21484 3.92839 2.08724 4.89453 2.08724H12.2865C13.2435 2.08724 14.0273 2.22396 14.5013 2.6888C14.957 3.15365 15.0846 3.91927 15.0846 4.88542Z" fill="#007AFF"/>
</svg>
