<svg width="14" height="14" viewBox="0 0 14 14" fill="none" xmlns="http://www.w3.org/2000/svg">
<path d="M12.8188 0.926042C12.0604 0.175 11.0396 0 9.63229 0H4.09063C2.70521 0 1.66979 0.175 0.91875 0.926042C0.167708 1.67708 0 2.69792 0 4.09062V9.58854C0 11.0031 0.160417 12.024 0.91875 12.775C1.67708 13.526 2.69792 13.701 4.10521 13.701H9.63229C11.0396 13.701 12.0677 13.526 12.8188 12.775C13.5698 12.0167 13.7375 11.0031 13.7375 9.58854V4.10521C13.7375 2.69062 13.5698 1.67708 12.8188 0.926042ZM12.0677 3.90833V9.79271C12.0677 10.5583 11.9656 11.1781 11.601 11.55C11.2219 11.9219 10.5948 12.0312 9.82917 12.0312H3.90833C3.14271 12.0312 2.51563 11.9219 2.13646 11.55C1.77188 11.1781 1.66979 10.5583 1.66979 9.79271V3.91562C1.66979 3.14271 1.77188 2.52292 2.13646 2.14375C2.50833 1.77187 3.14271 1.66979 3.91563 1.66979H9.82917C10.5948 1.66979 11.2219 1.77917 11.601 2.15104C11.9656 2.52292 12.0677 3.13542 12.0677 3.90833Z" fill="white"/>
</svg>
