<svg width="12" height="8" viewBox="0 0 12 8" fill="none" xmlns="http://www.w3.org/2000/svg">
<path d="M2 3.5C2.55228 3.5 3 3.94772 3 4.5V7C3 7.55228 2.55228 8 2 8H1C0.447715 8 0 7.55228 0 7V4.5C0 3.94772 0.447715 3.5 1 3.5H2ZM6.5 2C7.05228 2 7.5 2.44772 7.5 3V7C7.5 7.55228 7.05228 8 6.5 8H5.5C4.94772 8 4.5 7.55228 4.5 7V3C4.5 2.44772 4.94772 2 5.5 2H6.5ZM11 0C11.5523 0 12 0.447715 12 1V7C12 7.55228 11.5523 8 11 8H10C9.44772 8 9 7.55228 9 7V1C9 0.447715 9.44772 0 10 0H11Z" fill="black"/>
</svg>
