<svg width="80" height="80" viewBox="0 0 80 80" fill="none" xmlns="http://www.w3.org/2000/svg">
<path d="M39.667 79.334C61.5745 79.334 79.334 61.5745 79.334 39.667C79.334 17.7595 61.5745 0 39.667 0C17.7595 0 0 17.7595 0 39.667C0 61.5745 17.7595 79.334 39.667 79.334Z" fill="#8E96A3" fill-opacity="0.3"/>
<path d="M39.667 4.583C39.2029 4.58327 38.758 4.76772 38.4298 5.09586C38.1017 5.42399 37.9173 5.86895 37.917 6.333V9.666C37.917 10.1301 38.1014 10.5752 38.4296 10.9034C38.7577 11.2316 39.2029 11.416 39.667 11.416C40.1311 11.416 40.5762 11.2316 40.9044 10.9034C41.2326 10.5752 41.417 10.1301 41.417 9.666V6.333C41.4167 5.86895 41.2323 5.42399 40.9041 5.09586C40.576 4.76772 40.131 4.58327 39.667 4.583Z" fill="white"/>
<path d="M39.667 67.917C39.2029 67.9173 38.758 68.1017 38.4298 68.4298C38.1017 68.758 37.9173 69.2029 37.917 69.667V73C37.917 73.4641 38.1014 73.9092 38.4296 74.2374C38.7577 74.5656 39.2029 74.75 39.667 74.75C40.1311 74.75 40.5762 74.5656 40.9044 74.2374C41.2326 73.9092 41.417 73.4641 41.417 73V69.666C41.4165 69.2021 41.2319 68.7574 40.9038 68.4295C40.5757 68.1016 40.1309 67.9173 39.667 67.917Z" fill="white"/>
<path d="M73 37.917H69.667C69.2029 37.917 68.7577 38.1014 68.4296 38.4296C68.1014 38.7578 67.917 39.2029 67.917 39.667C67.917 40.1311 68.1014 40.5762 68.4296 40.9044C68.7577 41.2326 69.2029 41.417 69.667 41.417H73C73.4641 41.417 73.9092 41.2326 74.2374 40.9044C74.5656 40.5762 74.75 40.1311 74.75 39.667C74.75 39.2029 74.5656 38.7578 74.2374 38.4296C73.9092 38.1014 73.4641 37.917 73 37.917Z" fill="white"/>
<path d="M9.667 37.917H6.334C5.86987 37.917 5.42475 38.1014 5.09656 38.4296C4.76837 38.7578 4.584 39.2029 4.584 39.667C4.584 40.1311 4.76837 40.5762 5.09656 40.9044C5.42475 41.2326 5.86987 41.417 6.334 41.417H9.667C10.1311 41.417 10.5762 41.2326 10.9044 40.9044C11.2326 40.5762 11.417 40.1311 11.417 39.667C11.417 39.2029 11.2326 38.7578 10.9044 38.4296C10.5762 38.1014 10.1311 37.917 9.667 37.917Z" fill="white"/>
<path d="M64.715 19.716C64.5719 19.5361 64.3948 19.3862 64.1938 19.2748C63.9927 19.1634 63.7717 19.0928 63.5433 19.0668C63.315 19.0409 63.0837 19.0603 62.8628 19.1238C62.6419 19.1873 62.4357 19.2937 62.256 19.437L40.361 36.877C40.1343 36.818 39.9013 36.7867 39.667 36.784C39.4304 36.7879 39.1952 36.8215 38.967 36.884L21.129 22.801C20.9486 22.6586 20.742 22.5531 20.5208 22.4905C20.2997 22.428 20.0684 22.4096 19.8402 22.4364C19.6119 22.4633 19.3912 22.5348 19.1906 22.6469C18.99 22.7591 18.8134 22.9096 18.671 23.09C18.5286 23.2704 18.4231 23.477 18.3605 23.6982C18.298 23.9193 18.2796 24.1506 18.3064 24.3789C18.3333 24.6071 18.4048 24.8278 18.5169 25.0284C18.6291 25.229 18.7796 25.4056 18.96 25.548L36.788 39.624C36.788 39.638 36.788 39.652 36.788 39.667C36.788 39.682 36.793 39.703 36.793 39.722L32.841 42.866C32.4849 43.1574 32.2579 43.5774 32.2091 44.035C32.1604 44.4926 32.2939 44.951 32.5807 45.3109C32.8675 45.6708 33.2845 45.9033 33.7414 45.9579C34.1983 46.0126 34.6584 45.8851 35.022 45.603L38.974 42.455C39.2002 42.5149 39.433 42.5464 39.667 42.549C39.9036 42.5446 40.1387 42.511 40.367 42.449L44.332 45.58C44.6963 45.8676 45.1599 45.9988 45.6209 45.9446C46.0818 45.8904 46.5024 45.6553 46.79 45.291C47.0776 44.9267 47.2088 44.4631 47.1546 44.0021C47.1004 43.5412 46.8653 43.1206 46.501 42.833L42.541 39.706C42.541 39.691 42.541 39.678 42.541 39.663C42.541 39.648 42.541 39.627 42.541 39.608L64.437 22.175C64.7997 21.8856 65.0327 21.4641 65.0848 21.003C65.1369 20.542 65.0039 20.0791 64.715 19.716Z" fill="#254B8E"/>
</svg>
