<svg width="20" height="20" viewBox="0 0 20 20" fill="none" xmlns="http://www.w3.org/2000/svg">
<path d="M10 20C15.5228 20 20 15.5228 20 10C20 4.47715 15.5228 0 10 0C4.47715 0 0 4.47715 0 10C0 15.5228 4.47715 20 10 20Z" fill="#8E96A3" fill-opacity="0.3"/>
<path d="M9.99993 1.15472C9.88294 1.15479 9.77077 1.20129 9.68804 1.28401C9.60532 1.36674 9.55882 1.47891 9.55875 1.5959V2.43614C9.55875 2.55315 9.60523 2.66536 9.68797 2.7481C9.77071 2.83083 9.88292 2.87731 9.99993 2.87731C10.1169 2.87731 10.2291 2.83083 10.3119 2.7481C10.3946 2.66536 10.4411 2.55315 10.4411 2.43614V1.5959C10.441 1.47891 10.3945 1.36674 10.3118 1.28401C10.2291 1.20129 10.1169 1.15479 9.99993 1.15472Z" fill="white"/>
<path d="M9.99993 17.1215C9.88294 17.1216 9.77077 17.1681 9.68804 17.2508C9.60532 17.3335 9.55882 17.4457 9.55875 17.5627V18.4029C9.55875 18.5199 9.60523 18.6322 9.68797 18.7149C9.77071 18.7976 9.88292 18.8441 9.99993 18.8441C10.1169 18.8441 10.2291 18.7976 10.3119 18.7149C10.3946 18.6322 10.4411 18.5199 10.4411 18.4029V17.5624C10.441 17.4455 10.3944 17.3334 10.3117 17.2507C10.229 17.1681 10.1169 17.1216 9.99993 17.1215Z" fill="white"/>
<path d="M18.4026 9.5575H17.5623C17.4453 9.5575 17.3331 9.60398 17.2504 9.68671C17.1676 9.76945 17.1211 9.88166 17.1211 9.99867C17.1211 10.1157 17.1676 10.2279 17.2504 10.3106C17.3331 10.3934 17.4453 10.4398 17.5623 10.4398H18.4026C18.5196 10.4398 18.6318 10.3934 18.7145 10.3106C18.7973 10.2279 18.8437 10.1157 18.8437 9.99867C18.8437 9.88166 18.7973 9.76945 18.7145 9.68671C18.6318 9.60398 18.5196 9.5575 18.4026 9.5575Z" fill="white"/>
<path d="M2.43685 9.5575H1.59661C1.4796 9.5575 1.36739 9.60398 1.28465 9.68671C1.20191 9.76945 1.15543 9.88166 1.15543 9.99867C1.15543 10.1157 1.20191 10.2279 1.28465 10.3106C1.36739 10.3934 1.4796 10.4398 1.59661 10.4398H2.43685C2.55386 10.4398 2.66607 10.3934 2.74881 10.3106C2.83154 10.2279 2.87802 10.1157 2.87802 9.99867C2.87802 9.88166 2.83154 9.76945 2.74881 9.68671C2.66607 9.60398 2.55386 9.5575 2.43685 9.5575Z" fill="white"/>
<path d="M16.3141 4.97005C16.278 4.9247 16.2334 4.88691 16.1827 4.85883C16.132 4.83075 16.0763 4.81293 16.0187 4.8064C15.9612 4.79987 15.9029 4.80475 15.8472 4.82076C15.7915 4.83677 15.7395 4.8636 15.6942 4.89972L10.1745 9.29632C10.1173 9.28144 10.0586 9.27357 9.99954 9.27287C9.93989 9.27386 9.8806 9.28233 9.82307 9.29808L5.32613 5.74778C5.28066 5.71187 5.22856 5.68528 5.17281 5.66951C5.11706 5.65374 5.05875 5.6491 5.00121 5.65587C4.94367 5.66263 4.88803 5.68067 4.83745 5.70894C4.78688 5.73721 4.74238 5.77516 4.70647 5.82063C4.67057 5.8661 4.64397 5.9182 4.6282 5.97395C4.61243 6.0297 4.6078 6.08801 4.61456 6.14555C4.62133 6.20309 4.63936 6.25874 4.66763 6.30931C4.6959 6.35988 4.73386 6.40439 4.77933 6.44029L9.27374 9.98883C9.27374 9.99236 9.27374 9.99589 9.27374 9.99967C9.27374 10.0035 9.275 10.0087 9.275 10.0135L8.27871 10.8061C8.18893 10.8796 8.1317 10.9855 8.11942 11.1008C8.10713 11.2162 8.14078 11.3318 8.21308 11.4225C8.28538 11.5132 8.39051 11.5718 8.5057 11.5856C8.62089 11.5994 8.73688 11.5672 8.82854 11.4961L9.82483 10.7025C9.88186 10.7176 9.94055 10.7256 9.99954 10.7262C10.0592 10.7251 10.1184 10.7166 10.176 10.701L11.1756 11.4903C11.2674 11.5628 11.3843 11.5959 11.5005 11.5822C11.6167 11.5686 11.7227 11.5093 11.7952 11.4175C11.8677 11.3256 11.9008 11.2088 11.8871 11.0926C11.8735 10.9763 11.8142 10.8703 11.7224 10.7978L10.7241 10.0095C10.7241 10.0057 10.7241 10.0024 10.7241 9.99867C10.7241 9.99488 10.7241 9.98959 10.7241 9.9848L16.244 5.58996C16.3355 5.51701 16.3942 5.41074 16.4073 5.29451C16.4205 5.17828 16.3869 5.06158 16.3141 4.97005Z" fill="#254B8E"/>
</svg>
