<svg width="16" height="16" viewBox="0 0 16 16" fill="none" xmlns="http://www.w3.org/2000/svg">
<path d="M12.25 3.74896C11.7083 3.2125 10.9792 3.0875 9.97396 3.0875H6.01563C5.02604 3.0875 4.28646 3.2125 3.75 3.74896C3.21354 4.28542 3.09375 5.01458 3.09375 6.00937V9.93646C3.09375 10.9469 3.20833 11.676 3.75 12.2125C4.29167 12.749 5.02083 12.874 6.02604 12.874H9.97396C10.9792 12.874 11.7135 12.749 12.25 12.2125C12.7865 11.6708 12.9063 10.9469 12.9063 9.93646V6.01979C12.9063 5.00937 12.7865 4.28542 12.25 3.74896ZM11.7135 5.87917V10.0823C11.7135 10.6292 11.6406 11.0719 11.3802 11.3375C11.1094 11.6031 10.6615 11.6812 10.1146 11.6812H5.88542C5.33854 11.6812 4.89063 11.6031 4.61979 11.3375C4.35938 11.0719 4.28646 10.6292 4.28646 10.0823V5.88437C4.28646 5.33229 4.35938 4.88958 4.61979 4.61875C4.88542 4.35312 5.33854 4.28021 5.89063 4.28021H10.1146C10.6615 4.28021 11.1094 4.35833 11.3802 4.62396C11.6406 4.88958 11.7135 5.32708 11.7135 5.87917Z" fill="black"/>
</svg>
