<svg width="27" height="12" viewBox="0 0 27 12" fill="none" xmlns="http://www.w3.org/2000/svg">
<path opacity="0.35" d="M21.5 0C22.8807 0 24 1.11929 24 2.5V9C24 10.3807 22.8807 11.5 21.5 11.5H2.5C1.11929 11.5 0 10.3807 0 9V2.5C0 1.11929 1.11929 0 2.5 0H21.5ZM2.5 1C1.67157 1 1 1.67157 1 2.5V9C1 9.82843 1.67157 10.5 2.5 10.5H21.5C22.3284 10.5 23 9.82843 23 9V2.5C23 1.67157 22.3284 1 21.5 1H2.5ZM21.5 2C21.7761 2 22 2.22386 22 2.5V9C22 9.27614 21.7761 9.5 21.5 9.5H2.5C2.22386 9.5 2 9.27614 2 9V2.5C2 2.22386 2.22386 2 2.5 2H21.5Z" fill="black"/>
<path opacity="0.35" d="M25.5 4.33594C25.8128 4.72258 26 5.21455 26 5.75C26 6.28491 25.8122 6.77565 25.5 7.16211V4.33594Z" stroke="#3C3C43" stroke-opacity="0.6"/>
<path fill-rule="evenodd" clip-rule="evenodd" d="M3 2H21C21.5523 2 22 2.44772 22 3V8.5C22 9.05228 21.5523 9.5 21 9.5H3C2.44772 9.5 2 9.05228 2 8.5V3C2 2.44772 2.44772 2 3 2Z" fill="black"/>
</svg>
