<svg width="23" height="23" viewBox="0 0 23 23" fill="none" xmlns="http://www.w3.org/2000/svg">
<path d="M17.15 5.24854C16.3917 4.4975 15.3708 4.3225 13.9635 4.3225H8.42187C7.03646 4.3225 6.00104 4.4975 5.25 5.24854C4.49896 5.99958 4.33125 7.02042 4.33125 8.41313V13.911C4.33125 15.3256 4.49167 16.3465 5.25 17.0975C6.00833 17.8485 7.02917 18.0235 8.43646 18.0235H13.9635C15.3708 18.0235 16.399 17.8485 17.15 17.0975C17.901 16.3392 18.0688 15.3256 18.0688 13.911V8.42771C18.0688 7.01313 17.901 5.99958 17.15 5.24854ZM16.399 8.23083V14.1152C16.399 14.8808 16.2969 15.5006 15.9323 15.8725C15.5531 16.2444 14.926 16.3537 14.1604 16.3537H8.23958C7.47396 16.3537 6.84687 16.2444 6.46771 15.8725C6.10312 15.5006 6.00104 14.8808 6.00104 14.1152V8.23813C6.00104 7.46521 6.10312 6.84542 6.46771 6.46625C6.83958 6.09438 7.47396 5.99229 8.24687 5.99229H14.1604C14.926 5.99229 15.5531 6.10167 15.9323 6.47354C16.2969 6.84542 16.399 7.45792 16.399 8.23083Z" fill="white"/>
</svg>
