<svg width="20" height="20" viewBox="0 0 20 20" fill="none" xmlns="http://www.w3.org/2000/svg">
<mask id="mask0_6015_10601" style="mask-type:luminance" maskUnits="userSpaceOnUse" x="0" y="0" width="20" height="20">
<path fill-rule="evenodd" clip-rule="evenodd" d="M0 0H19.499V19.499H0V0Z" fill="white"/>
</mask>
<g mask="url(#mask0_6015_10601)">
<path fill-rule="evenodd" clip-rule="evenodd" d="M8.8049 11.8174L12.4619 17.7504C12.6219 18.0104 12.8719 18.0074 12.9729 17.9934C13.0739 17.9794 13.3169 17.9174 13.4049 17.6224L17.9779 2.1774C18.0579 1.9044 17.9109 1.7184 17.8449 1.6524C17.7809 1.5864 17.5979 1.4454 17.3329 1.5204L1.8769 6.0464C1.5839 6.1324 1.5199 6.3784 1.5059 6.4794C1.4919 6.5824 1.4879 6.8374 1.7469 7.0004L7.7479 10.7534L13.0499 5.3954C13.3409 5.1014 13.8159 5.0984 14.1109 5.3894C14.4059 5.6804 14.4079 6.1564 14.1169 6.4504L8.8049 11.8174ZM12.8949 19.4994C12.1989 19.4994 11.5609 19.1454 11.1849 18.5374L7.3079 12.2464L0.9519 8.2714C0.2669 7.8424 -0.0911 7.0784 0.0199 6.2754C0.1299 5.4724 0.6809 4.8344 1.4549 4.6074L16.9109 0.0813999C17.6219 -0.1266 18.3839 0.0703999 18.9079 0.5924C19.4319 1.1194 19.6269 1.8894 19.4149 2.6034L14.8419 18.0474C14.6129 18.8244 13.9729 19.3734 13.1719 19.4804C13.0779 19.4924 12.9869 19.4994 12.8949 19.4994V19.4994Z" fill="black"/>
</g>
</svg>
