<svg width="28" height="28" viewBox="0 0 28 28" fill="none" xmlns="http://www.w3.org/2000/svg">
<path d="M21.4375 6.56068C20.4896 5.62188 19.2135 5.40313 17.4544 5.40313H10.5273C8.79557 5.40313 7.5013 5.62188 6.5625 6.56068C5.6237 7.49948 5.41406 8.77552 5.41406 10.5164V17.3888C5.41406 19.157 5.61458 20.4331 6.5625 21.3719C7.51042 22.3107 8.78646 22.5294 10.5456 22.5294H17.4544C19.2135 22.5294 20.4987 22.3107 21.4375 21.3719C22.3763 20.424 22.5859 19.157 22.5859 17.3888V10.5346C22.5859 8.76641 22.3763 7.49948 21.4375 6.56068ZM20.4987 10.2885V17.644C20.4987 18.601 20.3711 19.3758 19.9154 19.8406C19.4414 20.3055 18.6576 20.4422 17.7005 20.4422H10.2995C9.34245 20.4422 8.55859 20.3055 8.08464 19.8406C7.62891 19.3758 7.5013 18.601 7.5013 17.644V10.2977C7.5013 9.33151 7.62891 8.55677 8.08464 8.08281C8.54948 7.61797 9.34245 7.49037 10.3086 7.49037H17.7005C18.6576 7.49037 19.4414 7.62708 19.9154 8.09193C20.3711 8.55677 20.4987 9.3224 20.4987 10.2885Z" fill="#007AFF"/>
</svg>
