<svg width="18" height="18" viewBox="0 0 18 18" fill="none" xmlns="http://www.w3.org/2000/svg">
<path d="M13.5 5.37C13.455 5.3625 13.4025 5.3625 13.3575 5.37C12.3225 5.3325 11.4975 4.485 11.4975 3.435C11.4975 2.3625 12.36 1.5 13.4325 1.5C14.505 1.5 15.3675 2.37 15.3675 3.435C15.36 4.485 14.535 5.3325 13.5 5.37Z" stroke="#292D32" stroke-opacity="0.8" stroke-width="1.5" stroke-linecap="round" stroke-linejoin="round"/>
<path d="M12.7275 10.83C13.755 11.0025 14.8875 10.8225 15.6825 10.29C16.74 9.58501 16.74 8.43001 15.6825 7.72501C14.88 7.19251 13.7325 7.0125 12.705 7.1925" stroke="#292D32" stroke-opacity="0.8" stroke-width="1.5" stroke-linecap="round" stroke-linejoin="round"/>
<path d="M4.4775 5.37C4.5225 5.3625 4.575 5.3625 4.62 5.37C5.655 5.3325 6.48 4.485 6.48 3.435C6.48 2.3625 5.6175 1.5 4.545 1.5C3.4725 1.5 2.61 2.37 2.61 3.435C2.6175 4.485 3.4425 5.3325 4.4775 5.37Z" stroke="#292D32" stroke-opacity="0.8" stroke-width="1.5" stroke-linecap="round" stroke-linejoin="round"/>
<path d="M5.25 10.83C4.2225 11.0025 3.09 10.8225 2.295 10.29C1.2375 9.58501 1.2375 8.43001 2.295 7.72501C3.0975 7.19251 4.245 7.0125 5.2725 7.1925" stroke="#292D32" stroke-opacity="0.8" stroke-width="1.5" stroke-linecap="round" stroke-linejoin="round"/>
<path d="M9 10.9725C8.955 10.965 8.9025 10.965 8.8575 10.9725C7.8225 10.935 6.9975 10.0875 6.9975 9.0375C6.9975 7.965 7.86 7.1025 8.9325 7.1025C10.005 7.1025 10.8675 7.9725 10.8675 9.0375C10.86 10.0875 10.035 10.9425 9 10.9725Z" stroke="#292D32" stroke-opacity="0.8" stroke-width="1.5" stroke-linecap="round" stroke-linejoin="round"/>
<path d="M6.8175 13.335C5.76 14.04 5.76 15.195 6.8175 15.9C8.0175 16.7025 9.9825 16.7025 11.1825 15.9C12.24 15.195 12.24 14.04 11.1825 13.335C9.99 12.54 8.0175 12.54 6.8175 13.335Z" stroke="#292D32" stroke-opacity="0.8" stroke-width="1.5" stroke-linecap="round" stroke-linejoin="round"/>
</svg>
