<svg width="18" height="18" viewBox="0 0 18 18" fill="none" xmlns="http://www.w3.org/2000/svg">
<path d="M3.19501 8.26496V11.9925C3.19501 13.3575 3.19501 13.3575 4.48501 14.2275L8.03251 16.275C8.56501 16.5825 9.43501 16.5825 9.96751 16.275L13.515 14.2275C14.805 13.3575 14.805 13.3575 14.805 11.9925V8.26496C14.805 6.89996 14.805 6.89996 13.515 6.02996L9.96751 3.98246C9.43501 3.67496 8.56501 3.67496 8.03251 3.98246L4.48501 6.02996C3.19501 6.89996 3.19501 6.89996 3.19501 8.26496Z" stroke="#292D32" stroke-opacity="0.8" stroke-width="1.5" stroke-linecap="round" stroke-linejoin="round"/>
<path d="M13.125 5.7225V3.75C13.125 2.25 12.375 1.5 10.875 1.5H7.125C5.625 1.5 4.875 2.25 4.875 3.75V5.67" stroke="#292D32" stroke-opacity="0.8" stroke-width="1.5" stroke-linecap="round" stroke-linejoin="round"/>
<path d="M9.4725 8.24247L9.9 8.90997C9.9675 9.01497 10.1175 9.11997 10.23 9.14997L10.995 9.34497C11.4675 9.46497 11.595 9.86997 11.2875 10.245L10.785 10.8525C10.71 10.95 10.65 11.1225 10.6575 11.2425L10.7025 12.03C10.7325 12.5175 10.3875 12.765 9.9375 12.585L9.2025 12.2925C9.09 12.2475 8.9025 12.2475 8.79 12.2925L8.055 12.585C7.605 12.765 7.26 12.51 7.29 12.03L7.335 11.2425C7.3425 11.1225 7.2825 10.9425 7.2075 10.8525L6.705 10.245C6.3975 9.86997 6.525 9.46497 6.9975 9.34497L7.7625 9.14997C7.8825 9.11997 8.0325 9.00747 8.0925 8.90997L8.52 8.24247C8.79 7.83747 9.21 7.83747 9.4725 8.24247Z" stroke="#292D32" stroke-opacity="0.8" stroke-width="1.5" stroke-linecap="round" stroke-linejoin="round"/>
</svg>
