<svg width="15" height="10" viewBox="0 0 15 10" fill="none" xmlns="http://www.w3.org/2000/svg">
<path d="M7.13275 6.93945C7.77221 6.93947 8.39385 7.10733 8.94134 7.42773L9.16302 7.55762C9.3312 7.65604 9.36048 7.88691 9.22259 8.02441L7.32904 9.91309C7.21269 10.0291 7.0235 10.0291 6.90716 9.91309L5.02532 8.03613C4.88821 7.89921 4.91722 7.6704 5.08392 7.57129L5.30267 7.44043C5.85521 7.1119 6.4848 6.93945 7.13275 6.93945ZM7.13275 3.46973C8.72346 3.46975 10.2508 3.99741 11.4951 4.97461L11.6708 5.11328C11.811 5.2234 11.8234 5.4308 11.6972 5.55664L10.5663 6.68359C10.4618 6.78789 10.2963 6.80006 10.1777 6.71191L10.04 6.60938C9.19966 5.98493 8.18628 5.65041 7.13275 5.65039C6.07259 5.65039 5.05308 5.98935 4.20989 6.62109L4.0722 6.72461C3.95366 6.81343 3.78746 6.80172 3.68255 6.69727L2.55169 5.56934C2.42623 5.44372 2.43867 5.23715 2.57806 5.12695L2.75286 4.98828C4.00004 4.00246 5.53442 3.46973 7.13275 3.46973ZM7.13275 0C9.65721 2.20886e-05 12.0714 0.890349 13.9824 2.52246L14.1454 2.66211C14.2771 2.77461 14.2854 2.97523 14.163 3.09766L13.0351 4.22168C12.9259 4.33047 12.752 4.33817 12.6337 4.23926L12.4941 4.12305C10.9895 2.86495 9.10354 2.18069 7.13275 2.18066C5.15524 2.18066 3.26361 2.86981 1.75677 4.13574L1.61712 4.25293C1.49882 4.35232 1.32319 4.34443 1.2138 4.23535L0.0868481 3.11133C-0.0352438 2.98914 -0.0276089 2.78939 0.10345 2.67676L0.266536 2.53711C2.17988 0.896054 4.6007 0 7.13275 0Z" fill="black"/>
</svg>
